<svg id="Layer_1" data-name="Layer 1" xmlns="http://www.w3.org/2000/svg" viewBox="0 0 1024 1024"><defs><style>.cls-1{fill:#3ac6fc;}.cls-2{fill:#d9d9d9;}.cls-3{fill:#ececec;}.cls-4{fill:#fff;}.cls-5{fill:#e7b2c8;}.cls-6{fill:#846542;}.cls-7{fill:#97794d;}.cls-8{fill:#b59e7e;}.cls-9{fill:#876945;}.cls-10{fill:#dca5bf;}.cls-11{fill:#1d1e1c;}.cls-12{fill:#724712;}.cls-13{fill:#c6c6c5;}.cls-14{fill:#87683e;}</style></defs><circle class="cls-1" cx="512" cy="512" r="512"/><path class="cls-2" d="M263.31,718.61q18.1-28.47,36.17-57l153.84-112.9q-5.81-22.51-11.69-45-94.78,58.75-189.51,117.48Z"/><path class="cls-3" d="M441.63,503.74q5.85,22.51,11.69,45Q682.61,380.51,911.91,212.21Z"/><path class="cls-4" d="M911.9,212.21l-855.72,363,195.94,46"/><path class="cls-3" d="M441.63,503.74c-.05-.14-.07-.31-.12-.45L56.17,575.18l196,46L441.63,503.74"/><path class="cls-5" d="M442.93,689.49h46.2a5.3,5.3,0,0,1,5.3,5.3v1.6a.56.56,0,0,1-.56.56H439.93a1.66,1.66,0,0,1-1.66-1.66v-1.15A4.65,4.65,0,0,1,442.93,689.49Z" transform="translate(-147.72 126.69) rotate(-13.38)"/><path class="cls-6" d="M527.68,434.52c1.3,5.45-22.87,17.36-44.83,23.24A153.85,153.85,0,0,1,426,461.85a135.85,135.85,0,0,1-7.67-12.7c-2.84-5.32-3.7-7.78-6.33-12.5a100.89,100.89,0,0,0-8.48-12.79,434.48,434.48,0,0,0,73.74,8.06C507.49,432.63,526.57,429.91,527.68,434.52Z"/><path class="cls-5" d="M480.8,588.6c-3.75,4.56-7.63,9-11.55,13.43s-8,8.71-12.12,13-8.36,8.4-12.7,12.45-8.8,8-13.38,11.82-9.31,7.49-14.16,11-9.9,6.84-15.1,10c-2.59,1.57-5.27,3-8,4.47l-4.1,2.05c-1.36.69-2.79,1.28-4.18,1.92A115.44,115.44,0,0,1,368,674.88a85.11,85.11,0,0,1-18.88,2.76,68.64,68.64,0,0,1-19.43-2.23,58,58,0,0,1-18.2-8.2A70,70,0,0,1,297,653.88a104,104,0,0,1-10.68-15.72c-3-5.44-5.72-11-8.15-16.52-4.86-11.12-8.86-22.31-13-33.3s-8.09-21.87-12.76-32.3a181.23,181.23,0,0,0-16.15-29.65A107.52,107.52,0,0,0,214,502.27a92.64,92.64,0,0,0-13.77-8.92,100.15,100.15,0,0,0-15.16-6.6,123.6,123.6,0,0,0-33-6.05,154.9,154.9,0,0,0-17.1.07c-5.73.29-11.47.88-17.19,1.67a288,288,0,0,0-34.16,7.14c-5.65,1.51-11.27,3.2-16.86,5S55.55,498.27,50,500.21c5.2-2.8,10.51-5.39,15.86-7.91s10.82-4.8,16.34-7a242.59,242.59,0,0,1,34.12-10.7,176.25,176.25,0,0,1,35.92-4.56,134.6,134.6,0,0,1,18.36.93,114.45,114.45,0,0,1,18.22,3.6,107.77,107.77,0,0,1,33.74,16.26,117.4,117.4,0,0,1,26.31,26.67A190,190,0,0,1,267,549.45c5,11,9.27,22.22,13.37,33.28s8,22.08,12.44,32.58,9.49,20.55,16.06,28.89,14.81,14.59,24.71,17.5,20.79,3,31.53.81a128.26,128.26,0,0,0,31.54-11.59c5.1-2.57,10.11-5.41,15-8.44s9.78-6.19,14.54-9.53c2.41-1.64,4.74-3.37,7.11-5.07s4.69-3.48,7-5.27c4.66-3.53,9.2-7.23,13.75-10.92s9-7.54,13.45-11.4S476.38,592.51,480.8,588.6Z"/><path class="cls-7" d="M517.44,654c-13.41,24.34-88.87,40.42-126.79,5.45-35.95-33.16-26.58-98.14-26-101.44,1.84-11.47,11.12-58.21,10.53-79.49-.28-10.29-1.49-20.47-1.49-20.47-.78-6.6-1.75-12.29-2.64-16.82a22,22,0,0,1,13,2.5c12.1,7,13.82,27,13.87,27s-.4-1.95-2.65-10a361.5,361.5,0,0,1,8.42-109.43,32.46,32.46,0,0,0,.66,11.94,33.5,33.5,0,0,0,6.69,13c14.52,18.05,65.76,47.09,72.79,66.69,3.06,8.53,1.73,12.48,7.06,26.7a175.29,175.29,0,0,0,13.44,28A59.21,59.21,0,0,1,513,525.35a64.35,64.35,0,0,1-1.11,16.77c-6.17,37.45-9.25,56.18-1.57,70.2,4.65,8.48,10.05,10.45,11.57,19.93A37,37,0,0,1,517.44,654Z"/><path class="cls-8" d="M474.64,627.75c-30.82-32-28.89-73.71-28.38-81.65a37.47,37.47,0,0,1,11-27.84c7.81-8.61,21.92-28,41.69-56.42A344.41,344.41,0,0,1,526,553.58c8.91,60.86-4,90.6-7.45,98.08-.47,1-.86,1.81-1.12,2.35A101,101,0,0,1,474.64,627.75Z"/><ellipse class="cls-9" cx="330.17" cy="321.69" rx="54.27" ry="67.28" transform="translate(-129.78 352.35) rotate(-48.07)"/><path class="cls-7" d="M483.42,349.54c-8,19.47-39.48,41.73-51.11,52.77-15.73,14.94-31.55,42.83-29.47,99.86l-29.75,3.67a199.31,199.31,0,0,0,.55-47.78,202,202,0,0,0-23.73-75,109.72,109.72,0,0,0-14.53-60.59c19.43-17.66,37.52-22.56,47.12-24.22,16.59-2.87,32.27-.3,38.9.8,18,3,26.64,8.13,44.83,7.83a95.67,95.67,0,0,0,19.93-2.47l3,3.8.63,11.08A87.46,87.46,0,0,1,483.42,349.54Z"/><rect class="cls-10" x="478.58" y="303.73" width="11.42" height="8.76" rx="4.38" transform="translate(-89.32 329.15) rotate(-34.57)"/><circle class="cls-11" cx="404.78" cy="326.84" r="5.8"/><circle class="cls-4" cx="408.84" cy="327.4" r="0.99"/><path class="cls-4" d="M432.85,334.22a62.45,62.45,0,0,0-9,7.32,54.63,54.63,0,0,0-7.24,8.89,53.12,53.12,0,0,0-5.16,10.24,61.3,61.3,0,0,0-3,11.19,39.93,39.93,0,0,1,1.79-11.6,43.42,43.42,0,0,1,5-10.71,46.9,46.9,0,0,1,3.56-4.74,45.92,45.92,0,0,1,4.17-4.2A40.41,40.41,0,0,1,432.85,334.22Z"/><path class="cls-4" d="M435.19,335.54a41.16,41.16,0,0,0-4.85,6.34,31.83,31.83,0,0,0-3.21,7.15,30.93,30.93,0,0,0-1.34,7.71,38.89,38.89,0,0,0,.49,8,23.69,23.69,0,0,1-.69-16.15,24.11,24.11,0,0,1,3.71-7.37A23,23,0,0,1,435.19,335.54Z"/><path class="cls-4" d="M438.39,336.47a28.73,28.73,0,0,0-3.14,7.27,23.59,23.59,0,0,0-.73,7.7,25.45,25.45,0,0,0,1.8,7.55,34.11,34.11,0,0,0,3.88,6.93,20.78,20.78,0,0,1-5-6.41,21.23,21.23,0,0,1-2.27-7.95,20.19,20.19,0,0,1,1.15-8.2A18.9,18.9,0,0,1,438.39,336.47Z"/><path class="cls-7" d="M319.13,288.47c-2.4-.24-41.9-3.47-60,25.64-9.87,15.87-7.85,32.47-7.08,37.27,3.86,23.89,23,41,42.44,47.65,30.67,10.5,56.74-6.83,59.66-8.84-.15-12.93.1-26.66.88-41.11.83-15.17,2.17-29.5,3.83-42.9C352.9,301,339.07,290.5,319.13,288.47Z"/><path class="cls-5" d="M347.64,324.39a53,53,0,0,0,0,43.72c-22.75,12.06-46.62,6.47-55-7.46-5.26-8.75-5.4-22.45,1.75-31.91,8.27-10.95,22.42-11.2,28.49-11.2A49.88,49.88,0,0,1,347.64,324.39Z"/><path class="cls-8" d="M411.72,439.64c-5.39-8.1-10.07-13.5-9.89-22.05,0-2,.45-9.35,9.56-20.87a83.58,83.58,0,0,1,25.2-21.1c12.29-6.93,29.49-18.31,50.7-37.94-3.69,13.42-9.25,22.09-13.68,27.55-2.4,3-3.33,3.58-10,10.91-10.3,11.38-15.45,17.07-16.07,19.35-3.37,12.35,21.36,19.3,40.13,45.9,18.59,26.35,22.39,59.36,25.28,84,.8,6.85,1.18,12.59,1.38,16.62l-68.11,4.13a165.7,165.7,0,0,0-2.14-21.23,170.32,170.32,0,0,0-7.18-27.67C428.64,472.67,423.4,457.19,411.72,439.64Z"/><path class="cls-12" d="M487.07,336.73a9.46,9.46,0,0,1-4.19,1.85,11,11,0,0,1-4.7-.14,10.2,10.2,0,0,1-6.94-5.8,26.17,26.17,0,0,0,3.6,2.43,16.54,16.54,0,0,0,3.82,1.49,16.24,16.24,0,0,0,4.08.52A28.57,28.57,0,0,0,487.07,336.73Z"/><path class="cls-4" d="M911.9,212.21Q724.93,488.62,538,765L299.49,661.66"/><path class="cls-3" d="M538,765q-24.11-121.5-48.2-243L299.49,661.66,538,765"/><path class="cls-13" d="M263.31,718.62,344,681l-44.53-19.29Q281.4,690.15,263.31,718.62Z"/><path class="cls-7" d="M526.78,545c-2.19,5.49-40.77-3.86-72.35-16.38a319.91,319.91,0,0,1-73.95-41.53,119.26,119.26,0,0,1-.67-16.43,148.92,148.92,0,0,1,.87-15.21,115.09,115.09,0,0,1,2.14-12.1c19.05,15.23,47.08,36.52,82.76,59.74C504.38,528.33,528.59,540.47,526.78,545Z"/><path class="cls-13" d="M501.2,718.84c-1.91-.17-5.3.89-7.17,1.27-1.65.33-4,.8-6-.42-.87-.53-2.2-1.78-2-3s1.88-1.94,5.29-3.53c.74-.34,1-.43,1.37-.61,1.8-.82,6.35-2.9,7.3-6.84a6.91,6.91,0,0,0-1.93-6.68,6.66,6.66,0,0,0-4.32-1.45,9.68,9.68,0,0,0-4.24,1.12,19.56,19.56,0,0,0-6.89,4.91,15.28,15.28,0,0,0-3.71,6.2,13.88,13.88,0,0,0-.36,6.35,11.32,11.32,0,0,0,6.31,8.5,15.29,15.29,0,0,0,5.46,1.62,16.94,16.94,0,0,0,9.62-2.07c2.86-1.38,3.15-2.31,3.2-2.79a2.61,2.61,0,0,0-1.16-2.38A2,2,0,0,0,501.2,718.84ZM484.67,711c-.76-.89,1.53-4.75,4.78-6.39,1-.51,3-1.31,3.59-.63s-.82,3-.93,3.12a8.13,8.13,0,0,1-2.55,2.3C488.54,710.07,485.34,711.83,484.67,711Z"/><rect class="cls-13" x="486.57" y="682.35" width="4" height="11.65" rx="1.97" transform="translate(-112.36 95.58) rotate(-10.03)"/><rect class="cls-13" x="495.74" y="682.67" width="4" height="11.65" rx="1.97" transform="translate(265.11 -128.61) rotate(19.97)"/><rect class="cls-13" x="478.54" y="685.71" width="4" height="11.65" rx="1.97" transform="translate(1293.27 912.01) rotate(139.97)"/><rect class="cls-13" x="473.49" y="692.69" width="4" height="11.65" rx="1.97" transform="translate(1301.33 519.64) rotate(112.02)"/><rect class="cls-13" x="502.88" y="687.5" width="4" height="11.65" rx="1.97" transform="translate(681.16 -146.04) rotate(47.92)"/><path class="cls-14" d="M376,593.37a2.32,2.32,0,0,1-1.22-.86h0a4.14,4.14,0,0,1-.64-2.4h0a6.31,6.31,0,0,1,.52-2.45h0a2.8,2.8,0,0,1,.85-1.12h0a1.64,1.64,0,0,1,.22-.14h0a2.47,2.47,0,0,1,1.65-.25h0l.26.07h0c-.22-.39-.51-.88-.8-1.38h0c-.7-1.17-1.48-2.47-1.75-2.84h0l-.05-.07h0a3.06,3.06,0,0,1-.54-.54h0a.84.84,0,0,1-.18-.43h0a.57.57,0,0,1,.23-.51h0a1.14,1.14,0,0,1,1.58.25h0a1.42,1.42,0,0,1,.17.35h0l0,0h0l.08.15h0c.06.13.16.31.27.51h0c.23.42.55,1,.9,1.56h0c.64,1.09,1.41,2.34,2,3.25h0a1.19,1.19,0,0,1,.4-.07h0a.69.69,0,0,1,.44.15h0a1.29,1.29,0,0,1,.23.24h0a.72.72,0,0,1,.15.45h0a.9.9,0,0,1-.13.39h0c-.07.13-.16.24-.24.36h0a5.25,5.25,0,0,1,.5.58h0a1.62,1.62,0,0,1,.21.36h0a.72.72,0,0,1,.07.47h0a.55.55,0,0,1-.22.32h0l-.06,0h0a1.2,1.2,0,0,1-.58.17h0a.88.88,0,0,1-.48-.15h0l-.16-.13h0c-.11.27-.26.61-.44,1h0a6.41,6.41,0,0,1-1.71,2.29h0a1.82,1.82,0,0,1-1.58.33Zm-.34-3.79a3.53,3.53,0,0,0,.37,2.09h0a.53.53,0,0,0,.31.22h0a.58.58,0,0,0,.46-.13h0a4,4,0,0,0,1-1.37h0c.27-.58.53-1.23.79-1.85h0l-.35-.3h0a3.53,3.53,0,0,0-1.08-.61h0a.81.81,0,0,0-.6,0h0l-.11.07h0a2.78,2.78,0,0,0-.72,1.86Zm7.18-2.29a6.43,6.43,0,0,1-1.86-1.15h0a16.57,16.57,0,0,1-2.27-2.37h0l-.08-.1h0a1,1,0,0,1-.2-.55h0a.63.63,0,0,1,.26-.48h0l.11-.07h0a.87.87,0,0,1,.77,0h0a1,1,0,0,1,.39.33h0c.07.11.15.21.23.32h0a13.4,13.4,0,0,0,1.66,1.94h0a3.44,3.44,0,0,0,1.26.83h0a.44.44,0,0,0,.38,0h0a.48.48,0,0,0,.14-.18h0a1.61,1.61,0,0,0,.1-1h0a4.89,4.89,0,0,0-.43-1.25h0a11.93,11.93,0,0,0-1-1.68h0l0,0h0a.93.93,0,0,1-.21-.49h0a.74.74,0,0,1,.34-.67h0l0,0h0a.69.69,0,0,1,.49-.12h0a.84.84,0,0,1,.37.14h0a1.23,1.23,0,0,1,.32.28h0l0,0,0,0c.09.17.52.84.93,1.67h0a8,8,0,0,1,.91,2.73h0A2,2,0,0,1,385,587h0l-.21.18h0a2,2,0,0,1-1.93.16Zm6-2.54-.11.07h0a.84.84,0,0,1-.7.07h0a.65.65,0,0,1-.3-.19h0l-.08,0h0a.73.73,0,0,1-.58,0h0l-.08-.06h0l0,0h0l-.07-.08h0l-.21-.27h0c-.17-.22-.4-.52-.65-.87h0a28.46,28.46,0,0,1-1.65-2.5h0a1,1,0,0,1-.5-.29h0l0-.05h0a.77.77,0,0,1-.12-.53h0a2,2,0,0,1,.09-.33h0a1.16,1.16,0,0,1-.06-.15h0l-.32-.71h0a12.42,12.42,0,0,0-1-1.77h0l-.06-.08h0a1.58,1.58,0,0,0-.21-.19h0a1.75,1.75,0,0,1-.36-.36h0a.68.68,0,0,1-.16-.47h0a.83.83,0,0,1,.27-.51h0l.06-.05h0a.67.67,0,0,1,.45-.11h0a1.13,1.13,0,0,1,.43.13h0a2.28,2.28,0,0,1,.82.7h0l.06.08h0a5.54,5.54,0,0,1,.63,1.13h0c.14.32.3.69.54,1.19h0a6.38,6.38,0,0,1,1.59-.83h0a2.93,2.93,0,0,1,2.4.12h0a1.25,1.25,0,0,1,.42.37h0a2.63,2.63,0,0,1,.41,1.31h0a8.38,8.38,0,0,1-.05,1.57h0a23.59,23.59,0,0,1-.47,2.63h0l-.06.27h0a.94.94,0,0,0,0,.23h0a.78.78,0,0,1,0,.33h0a.56.56,0,0,1-.18.22h0Zm-2.23-3a15.55,15.55,0,0,0,1.14,1.41h0c.05-.19.11-.41.17-.66h0a10.47,10.47,0,0,0,.34-2.29h0a2,2,0,0,0-.22-1h0a.45.45,0,0,0-.15-.13h0a1.21,1.21,0,0,0-.89.05h0a4.22,4.22,0,0,0-1.23.63h0l-.23.18h0a4,4,0,0,0,.18.37h0a10.86,10.86,0,0,0,.7,1.22h0l.19.26Zm6.94.09a1,1,0,0,1-.56.16h0a.6.6,0,0,1-.41-.16h0a1.84,1.84,0,0,1-.32-.31h0c-.23-.25-.49-.59-.79-1h0c-1.14-1.57-2.73-4.13-3.64-5.62h0c-.47-.75-.88-1.38-1.19-1.89h0a6.69,6.69,0,0,1-.61-1.13h0a.56.56,0,0,1,0-.3h0a.82.82,0,0,1,.3-.51h0a1,1,0,0,1,.77-.12h0a.87.87,0,0,1,.33.14h0a1.39,1.39,0,0,1,.26.28h0c.19.27.4.66.77,1.34h0c.38.69.91,1.66,1.72,3h0c.63,1.08,1.33,2.15,2,3h0c.42.58.82,1.08,1.17,1.48h0a2.07,2.07,0,0,1,.15.2h0a2,2,0,0,1,.25.4h0a.9.9,0,0,1,.09.55h0a.61.61,0,0,1-.23.38h0Zm1.39-2.32-.06-.34.06.34a2.32,2.32,0,0,1-1.32-.25h0a3.39,3.39,0,0,1-1.28-1.07h0a3.37,3.37,0,0,1-.56-1.21h0a7.74,7.74,0,0,1-.24-2.6h0a2.35,2.35,0,0,1,.71-1.53h0l.11-.08h0a2.29,2.29,0,0,1,1.46-.39h0a3,3,0,0,1,2,.94h0a5,5,0,0,1,.43.5h0a4,4,0,0,1,.65,3.11h0a3.84,3.84,0,0,1-1.3,2.29h0a1.81,1.81,0,0,1-.65.29ZM393.4,574l-.07.1h0a1.81,1.81,0,0,0-.19.48h0a4.17,4.17,0,0,0,.22,2.33h0a1.41,1.41,0,0,0,.21.4h0a2,2,0,0,0,.61.56h0a.69.69,0,0,0,.56.11h0l.12-.06h0a1.74,1.74,0,0,0,.5-.9h0a2.56,2.56,0,0,0,.1-1.08h0a3.21,3.21,0,0,0-.51-1.37h0a2,2,0,0,0-.64-.56h0a1.23,1.23,0,0,0-.47-.19h0a.79.79,0,0,0-.3.06h0l-.12.12h0Zm-.13,0-.12-.23.12.23Zm-24.09,20.2a5.51,5.51,0,0,1,.12-1.56,6.67,6.67,0,0,1,1.49-2.67l.42-.25a2.09,2.09,0,0,1,1.18-.22,1.23,1.23,0,0,1,.93.86,2.13,2.13,0,0,1,0,1.71,4.86,4.86,0,0,1-1.12,1.62c-.48.47-.71.78-.68.93s.19.25.51.28a4,4,0,0,0,1.71-.52,7.84,7.84,0,0,0,1.89-1.18,8.71,8.71,0,0,0,1-1.09c.24-.32.8-.23,1-.38s.35-.13.58,0c-.07.63-.61.84-.88,1.27a8.43,8.43,0,0,1-1.13,1.36,10.28,10.28,0,0,1-1.95,1.45l-.5.27a6.76,6.76,0,0,1-2,.61,2.36,2.36,0,0,1-1-.15,2.47,2.47,0,0,1-.89-.76A4.15,4.15,0,0,1,369.18,594.17Zm1.53-.48a5.27,5.27,0,0,0,1.14-1.53c.14-.36.14-.62,0-.79s-.35,0-.62.36a2.39,2.39,0,0,0-.47,1A8.7,8.7,0,0,0,370.71,593.69Z"/><path class="cls-14" d="M399.55,583.37a6.91,6.91,0,0,1-3.82.66h0a.56.56,0,0,1-.39-.21h0a.41.41,0,0,1,0-.09h0a.75.75,0,0,1-.07-.49h0a.83.83,0,0,1,.24-.45h0l.07-.06h0a.68.68,0,0,1,.47-.11h0a4.14,4.14,0,0,0,1.15,0h0a7.71,7.71,0,0,0,1.17-.28h0a8,8,0,0,0,1.62-.76h0l.48-.33h0a6.62,6.62,0,0,0,.89-.79h0a7.24,7.24,0,0,0,.95-1.25h0a3.45,3.45,0,0,0,.24-2.31h0a8.91,8.91,0,0,0-1.31-2.61h0a4.35,4.35,0,0,1,0,.51h0a3.52,3.52,0,0,1-.19.84h0a2.44,2.44,0,0,1-.57.9h0l-.13.12h0a1.14,1.14,0,0,1-.44.18h0a1.68,1.68,0,0,1-.59,0h0a2.41,2.41,0,0,1-1.44-.89h0l-.11-.13h0a4.08,4.08,0,0,1-.68-1.51h0a10.5,10.5,0,0,1-.27-1.83h0c0-.14,0-.39,0-.75h0a8.07,8.07,0,0,1,.15-1.15h0a4.5,4.5,0,0,1,.41-1.15h0a1.59,1.59,0,0,1,.46-.56h0a1.48,1.48,0,0,1,.35-.19h0a.66.66,0,0,1,.23,0h0a.24.24,0,0,1,.19.1h0l0,0h0a.7.7,0,0,1,.06.39h0l0,0h0l.2-.12h0a.7.7,0,0,1,.94.14h0a.1.1,0,0,0,0,0h0c.51.82,1,1.64,1.55,2.45h0c.52.82,1,1.66,1.47,2.51h0a10.94,10.94,0,0,1,1,2.26h0a5.15,5.15,0,0,1,.2,1.12h0a4.69,4.69,0,0,1-.35,1.83h0a7,7,0,0,1-1,1.65h0a8.43,8.43,0,0,1-1.47,1.39h0a10.27,10.27,0,0,1-1.71,1Zm-1.16-13.23a3.06,3.06,0,0,0-.06.45h0l0,.53h0a5.11,5.11,0,0,0,0,1h0c.05.31.1.63.16.94h0a4.26,4.26,0,0,0,.61,1.78h0a1.67,1.67,0,0,0,.35.38h0c.08.06.14.07.16.06h0v0h0a.53.53,0,0,0,0-.11h0a4,4,0,0,0,0-.42h0a9.22,9.22,0,0,0-.23-1.65h0a14,14,0,0,0-.46-1.6h0c-.19-.52-.37-1-.55-1.54h0c0,.08,0,.16-.06.23Z"/><path class="cls-14" d="M404.65,573.27a3.6,3.6,0,0,1-1.57-.19h0a.53.53,0,0,1-.25-.19h0a.44.44,0,0,1-.1-.19h0a1,1,0,0,1,0-.52h0a.94.94,0,0,1,.26-.44h0l0,0h0a.52.52,0,0,1,.47-.07h0a2.38,2.38,0,0,0,.94.12h0a.45.45,0,0,0,.29-.1h0a.44.44,0,0,0,.17-.34h0s0,0,0,0h0a.45.45,0,0,0,0-.08h0a.75.75,0,0,0-.15-.3h0a1.5,1.5,0,0,0-.41-.36h0a1.82,1.82,0,0,0-.79-.22H403a1.94,1.94,0,0,1-.59-.06h0a1.65,1.65,0,0,1-.94-.63h0l-.18-.3h0a2.2,2.2,0,0,1-.14-1.69h0a3.83,3.83,0,0,1,.79-1.48h0l.09-.08h0a.44.44,0,0,1,.37-.08h0a.54.54,0,0,1,.31.2h0l.06.1h0a.9.9,0,0,1-.06.88h0a2.6,2.6,0,0,0-.2.46h0a2.05,2.05,0,0,0-.1.54h0a.87.87,0,0,0,.11.44h0l0,0h0a.45.45,0,0,0,.36.16h0a4.42,4.42,0,0,0,.63,0h0a2.48,2.48,0,0,1,.66.08h0a5.11,5.11,0,0,1,.83.29h0a2.07,2.07,0,0,1,.74.52h0a1.81,1.81,0,0,1,.18.23h0a2.54,2.54,0,0,1,.47,1.09h0a1.84,1.84,0,0,1-.35,1.44h0a2.09,2.09,0,0,1-.44.45h0a1.79,1.79,0,0,1-.93.35Zm.36-2-.05-.07.05.07Zm-.05,0h0Z"/><path class="cls-14" d="M397.59,566.06a.49.49,0,0,1,.21-.52.36.36,0,0,1,.49.13.74.74,0,0,1,.09.35l.05,1.14c0,.2,0,.4-.2.52a.37.37,0,0,1-.5-.13.71.71,0,0,1-.08-.34Z"/><path class="cls-14" d="M395.7,567.23c-.12-.16-.24-.32-.14-.54a.36.36,0,0,1,.47-.2.67.67,0,0,1,.27.23l.74.88c.13.16.24.32.14.54a.36.36,0,0,1-.47.2.75.75,0,0,1-.27-.23Z"/><path class="cls-14" d="M394.58,568.81c-.18-.09-.34-.2-.34-.44a.37.37,0,0,1,.35-.37.67.67,0,0,1,.34.11l1,.52c.18.1.35.2.35.44a.36.36,0,0,1-.36.37.78.78,0,0,1-.34-.1Z"/><path class="cls-14" d="M395.42,570a.48.48,0,0,1,.52.19.37.37,0,0,1-.1.5.81.81,0,0,1-.34.1l-1.14.1a.5.5,0,0,1-.53-.18.38.38,0,0,1,.1-.51.74.74,0,0,1,.35-.09Z"/><path class="cls-14" d="M399.55,566.18c.07-.19.16-.36.4-.39a.36.36,0,0,1,.4.32.85.85,0,0,1-.06.35l-.41,1.07c-.08.18-.16.36-.4.39a.38.38,0,0,1-.41-.32.72.72,0,0,1,.07-.35Z"/></svg>